<svg width="44" height="45" viewBox="0 0 44 45" fill="none" xmlns="http://www.w3.org/2000/svg">
<path fill-rule="evenodd" clip-rule="evenodd" d="M0 22.4861C0 10.3986 9.84974 0.599854 22 0.599854C34.1503 0.599854 44 10.3986 44 22.4861C44 34.5735 34.1503 44.3723 22 44.3723C9.84974 44.3723 0 34.5735 0 22.4861Z" fill="#0E5A4C"/>
<path fill-rule="evenodd" clip-rule="evenodd" d="M23.1508 29.6689C23.1508 29.6689 23.5743 29.6229 23.7912 29.3954C23.9898 29.1869 23.9829 28.7935 23.9829 28.7935C23.9829 28.7935 23.9565 26.9565 24.8299 26.6853C25.6908 26.4185 26.796 28.4618 27.9691 29.2474C28.8551 29.8415 29.5277 29.7115 29.5277 29.7115L32.6622 29.6689C32.6622 29.6689 34.3012 29.5702 33.5242 28.3116C33.4599 28.2085 33.0708 27.3802 31.1942 25.6788C29.2281 23.8978 29.4921 24.1859 31.8588 21.1048C33.3004 19.2286 33.8766 18.0831 33.6964 17.5933C33.5253 17.1248 32.4648 17.2492 32.4648 17.2492L28.9366 17.2705C28.9366 17.2705 28.6749 17.2358 28.481 17.349C28.2916 17.4599 28.1688 17.7188 28.1688 17.7188C28.1688 17.7188 27.611 19.1703 26.8661 20.4054C25.2948 23.0102 24.667 23.148 24.4099 22.9866C23.8119 22.6089 23.9611 21.4713 23.9611 20.6632C23.9611 18.138 24.3536 17.0856 23.1978 16.8132C22.8145 16.7224 22.5321 16.663 21.5508 16.653C20.2917 16.6406 19.2266 16.6574 18.6229 16.9455C18.2212 17.1371 17.9113 17.5653 18.1007 17.5899C18.3336 17.6202 18.8616 17.7289 19.1417 18.101C19.5032 18.5819 19.4906 19.6601 19.4906 19.6601C19.4906 19.6601 19.6983 22.6324 19.0051 23.0012C18.5299 23.2545 17.878 22.7378 16.4766 20.374C15.7592 19.1636 15.2175 17.8253 15.2175 17.8253C15.2175 17.8253 15.113 17.5754 14.926 17.4409C14.6999 17.2784 14.3842 17.2279 14.3842 17.2279L11.0316 17.2492C11.0316 17.2492 10.5278 17.2627 10.343 17.4767C10.1788 17.6662 10.3303 18.0596 10.3303 18.0596C10.3303 18.0596 12.9553 24.057 15.9279 27.0798C18.6539 29.8504 21.7482 29.6689 21.7482 29.6689H23.1508Z" fill="white"/>
</svg>
