<svg width="7" height="8" viewBox="0 0 7 8" xmlns="http://www.w3.org/2000/svg">
<g clip-path="url(#clip0)">
<path d="M6.92012 5.68997C6.81343 5.79687 6.64032 5.79704 6.53341 5.69037L3.69335 2.8562C3.58672 2.74959 3.41327 2.7496 3.30645 2.85641L0.466594 5.69037C0.359693 5.79705 0.18658 5.79687 0.0798849 5.68997C-0.0267831 5.58307 -0.0266053 5.40994 0.0802814 5.30328L2.91994 2.46951C3.07992 2.30956 3.28999 2.22961 3.50008 2.22961C3.71005 2.22961 3.92007 2.30953 4.07984 2.46932L6.91972 5.30328C7.02661 5.40994 7.02678 5.58307 6.92012 5.68997Z" />
</g>
<defs>
<clipPath id="clip0">
<rect width="7" height="7" fill="white" transform="matrix(1 0 0 -1 0 7.5)"/>
</clipPath>
</defs>
</svg>
